<?xml version="1.0" standalone="no"?>
<!DOCTYPE svg PUBLIC "-//W3C//DTD SVG 20010904//EN"
 "http://www.w3.org/TR/2001/REC-SVG-20010904/DTD/svg10.dtd">
<svg version="1.0" xmlns="http://www.w3.org/2000/svg"
 width="904.000000pt" height="510.000000pt" viewBox="0 0 904.000000 510.000000"
 preserveAspectRatio="xMidYMid meet">

<g transform="translate(0.000000,510.000000) scale(0.100000,-0.100000)"
fill="#000000" stroke="none">
<path d="M5415 4707 c11 -8 94 -61 185 -118 l165 -104 1451 -3 1450 -3 139
113 139 113 -85 7 c-46 3 -844 6 -1774 7 -1420 1 -1686 -1 -1670 -12z"/>
<path d="M170 4696 c62 -57 254 -208 275 -216 30 -11 2402 -13 2720 -2 l190 7
156 98 c86 53 164 104 175 112 17 13 -203 14 -1756 15 -1494 0 -1772 -2 -1760
-14z"/>
<path d="M3579 4491 c-426 -192 -802 -574 -1039 -1056 -32 -66 -68 -144 -80
-174 l-21 -54 148 8 c143 7 173 14 173 39 0 26 91 196 158 296 191 284 394
477 618 589 44 21 95 43 114 48 l35 10 226 -196 c124 -108 330 -287 459 -398
128 -112 236 -203 240 -203 4 0 115 98 247 218 131 119 333 302 447 407 l209
189 82 -43 c167 -87 357 -255 500 -442 106 -138 234 -332 280 -425 l40 -81 50
-6 c28 -4 91 -7 142 -7 l92 0 -11 30 c-19 57 -144 295 -209 398 -242 390 -584
700 -937 852 l-87 38 -30 -25 c-29 -25 -479 -446 -706 -662 l-115 -109 -186
177 c-385 369 -682 631 -713 631 -11 -1 -68 -22 -126 -49z"/>
<path d="M6033 4440 l-222 -5 135 -107 136 -106 73 -7 c40 -4 542 -5 1116 -3
l1044 4 158 109 159 110 -69 6 c-81 8 -2211 7 -2530 -1z"/>
<path d="M490 4425 c8 -8 80 -59 160 -115 l145 -100 1113 0 1114 0 134 106
c73 58 136 109 139 115 4 5 -529 9 -1407 9 -1237 0 -1410 -2 -1398 -15z"/>
<path d="M6262 4068 c101 -108 108 -113 154 -120 27 -3 398 -7 824 -7 l775 0
134 112 133 112 -178 6 c-99 4 -577 7 -1063 8 l-884 1 105 -112z"/>
<path d="M841 4153 c8 -9 68 -62 134 -117 l120 -101 660 -3 c363 -1 733 1 822
6 l162 8 98 103 c54 57 100 108 101 112 2 5 -469 9 -1053 9 -983 0 -1056 -1
-1044 -17z"/>
<path d="M6441 3880 c8 -10 43 -61 79 -113 l65 -94 59 -7 c32 -3 298 -6 590
-6 l531 0 120 120 120 120 -789 0 c-780 0 -788 0 -775 -20z"/>
<path d="M1120 3882 c0 -4 51 -59 114 -121 l115 -114 578 6 578 5 35 40 c19
22 59 74 88 116 l53 76 -780 0 c-430 0 -781 -3 -781 -8z"/>
<path d="M6630 3605 c0 -19 112 -224 125 -229 9 -3 183 -6 385 -6 369 0 369 0
393 23 27 24 177 205 177 212 0 3 -243 5 -540 5 -297 0 -540 -2 -540 -5z"/>
<path d="M1407 3588 c5 -7 50 -62 99 -122 l89 -109 384 5 c360 4 384 6 395 23
6 11 32 63 58 117 l47 98 -541 0 c-431 0 -539 -3 -531 -12z"/>
<path d="M1713 3343 c-46 -2 -83 -7 -82 -11 0 -4 30 -54 67 -112 l68 -105 249
0 250 0 38 109 c20 60 35 111 33 113 -6 6 -527 11 -623 6z"/>
<path d="M6770 3345 c0 -3 16 -54 35 -114 l35 -108 83 -6 c45 -4 156 -7 247
-7 l165 0 67 104 c38 57 71 111 74 120 6 14 -28 16 -350 16 -196 0 -356 -2
-356 -5z"/>
<path d="M4086 2948 c-3 -95 -8 -667 -10 -1272 -3 -604 -7 -1100 -9 -1102 -2
-2 -21 2 -43 9 l-39 14 -6 539 c-3 296 -7 853 -8 1236 0 415 -5 699 -10 703
-5 3 -159 -155 -342 -350 -182 -195 -333 -355 -336 -355 -2 0 -180 145 -396
323 -477 393 -476 392 -483 384 -16 -15 -65 -309 -74 -442 -13 -183 0 -444 30
-596 174 -872 798 -1534 1655 -1754 198 -51 341 -69 555 -68 218 0 355 17 576
73 552 140 955 418 1263 871 94 140 130 283 111 450 -22 195 -97 300 -345 487
-201 152 -268 234 -281 345 -19 162 93 284 278 304 181 19 302 -104 333 -338
l6 -47 57 -4 c73 -7 183 7 222 27 28 15 30 19 30 73 -1 145 -83 326 -204 448
-48 47 -144 114 -211 145 -111 53 -181 69 -303 69 -173 0 -294 -52 -424 -181
-127 -125 -178 -267 -163 -449 24 -272 152 -479 373 -600 226 -123 275 -178
280 -315 11 -253 -159 -518 -463 -720 -87 -58 -265 -155 -283 -155 -9 0 -12
293 -12 1205 l0 1205 -159 0 c-136 0 -160 -2 -165 -16 -3 -9 -6 -222 -6 -475
l0 -459 -335 0 -335 0 0 475 0 475 -144 0 c-79 0 -151 3 -159 6 -13 4 -16 -21
-21 -168z m-1097 -658 l323 -283 193 199 194 199 1 -40 c0 -22 2 -83 4 -135 2
-52 7 -416 12 -809 l7 -715 -59 33 c-318 178 -678 570 -848 924 -106 221 -178
504 -192 762 -2 50 -7 109 -9 131 -5 51 2 60 29 36 12 -10 167 -146 345 -302z
m2076 -730 c5 -428 7 -992 3 -995 -2 -2 -59 -13 -128 -24 -129 -23 -438 -39
-501 -27 l-34 6 0 677 0 678 240 5 c132 3 279 6 328 5 l88 0 4 -325z"/>
</g>
</svg>
